<svg xmlns="http://www.w3.org/2000/svg" version="1.1" xmlns:xlink="http://www.w3.org/1999/xlink" xmlns:svgjs="http://svgjs.com/svgjs" width="2100" height="1100" preserveAspectRatio="none" viewBox="0 0 2100 1100"><g mask="url(&quot;#SvgjsMask1217&quot;)" fill="none"><rect width="2100" height="1100" x="0" y="0" fill="rgba(22, 24, 83, 1)"></rect><path d="M -480.98879638011255,829 C -375.99,705 -165.99,239.4 44.01120361988745,209 C 254.01,178.6 359.01,620 569.0112036198875,677 C 779.01,734 884.01,480.2 1094.0112036198875,494 C 1304.01,507.8 1409.01,793.2 1619.0112036198875,746 C 1829.01,698.8 2047.81,243.8 2144.0112036198875,258 C 2240.21,272.2 2108.8,705.2 2100,817" stroke="rgba(41, 44, 109, 1)" stroke-width="2"></path><path d="M -596.458380086667,855 C -491.46,763.8 -281.46,382.8 -71.45838008666708,399 C 138.54,415.2 243.54,933.4 453.5416199133329,936 C 663.54,938.6 768.54,466.6 978.541619913333,412 C 1188.54,357.4 1293.54,648.2 1503.5416199133329,663 C 1713.54,677.8 1909.25,459.4 2028.5416199133329,486 C 2147.83,512.6 2085.71,734 2100,796" stroke="rgba(41, 44, 109, 1)" stroke-width="2"></path><path d="M -662.491818141623,746 C -557.49,686.8 -347.49,442.8 -137.49181814162293,450 C 72.51,457.2 177.51,780.4 387.50818185837704,782 C 597.51,783.6 702.51,441.8 912.508181858377,458 C 1122.51,474.2 1227.51,884 1437.5081818583772,863 C 1647.51,842 1830.01,402.8 1962.5081818583772,353 C 2095.01,303.2 2072.5,561.8 2100,614" stroke="rgba(250, 237, 240, 1)" stroke-width="2"></path><path d="M -976.192294955997,196 C -871.19,285 -661.19,602.4 -451.192294955997,641 C -241.19,679.6 -136.19,397.8 73.807705044003,389 C 283.81,380.2 388.81,641.4 598.807705044003,597 C 808.81,552.6 913.81,120.8 1123.807705044003,167 C 1333.81,213.2 1453.57,822.2 1648.807705044003,828 C 1844.05,833.8 2009.76,322.4 2100,196" stroke="rgba(41, 44, 109, 1)" stroke-width="2"></path><path d="M -851.4086965777446,771 C -746.41,684.2 -536.41,377.8 -326.4086965777447,337 C -116.41,296.2 -11.41,546.6 198.5913034222553,567 C 408.59,587.4 513.59,419.4 723.5913034222554,439 C 933.59,458.6 1038.59,676.6 1248.5913034222554,665 C 1458.59,653.4 1603.31,394 1773.5913034222554,381 C 1943.87,368 2034.72,556.2 2100,600" stroke="rgba(41, 44, 109, 1)" stroke-width="2"></path><path d="M -635.0276906159428,903 C -530.03,813.6 -320.03,511.4 -110.02769061594277,456 C 99.97,400.6 204.97,609.4 414.9723093840572,626 C 624.97,642.6 729.97,533 939.9723093840572,539 C 1149.97,545 1254.97,682.4 1464.9723093840573,656 C 1674.97,629.6 1862.97,360.4 1989.9723093840573,407 C 2116.98,453.6 2077.99,792.6 2100,889" stroke="rgba(236, 37, 90, 1)" stroke-width="2"></path></g><defs><mask id="SvgjsMask1217"><rect width="2100" height="1100" fill="#ffffff"></rect></mask></defs></svg>