<?xml version="1.0" standalone="no"?>
<svg xmlns:xlink="http://www.w3.org/1999/xlink" id="wave" style="transform:rotate(0deg); transition: 0.3s" viewBox="0 0 1440 110" version="1.1" xmlns="http://www.w3.org/2000/svg"><defs><linearGradient id="sw-gradient-0" x1="0" x2="0" y1="1" y2="0"><stop stop-color="rgba(22, 24, 83, 1)" offset="0%"/><stop stop-color="rgba(41, 44, 109, 1)" offset="100%"/></linearGradient></defs><path style="transform:translate(0, 0px); opacity:1" fill="url(#sw-gradient-0)" d="M0,44L17.1,44C34.3,44,69,44,103,47.7C137.1,51,171,59,206,56.8C240,55,274,44,309,40.3C342.9,37,377,40,411,38.5C445.7,37,480,29,514,31.2C548.6,33,583,44,617,45.8C651.4,48,686,40,720,42.2C754.3,44,789,55,823,62.3C857.1,70,891,73,926,66C960,59,994,40,1029,44C1062.9,48,1097,73,1131,86.2C1165.7,99,1200,99,1234,89.8C1268.6,81,1303,62,1337,47.7C1371.4,33,1406,22,1440,14.7C1474.3,7,1509,4,1543,9.2C1577.1,15,1611,29,1646,36.7C1680,44,1714,44,1749,51.3C1782.9,59,1817,73,1851,71.5C1885.7,70,1920,51,1954,40.3C1988.6,29,2023,26,2057,27.5C2091.4,29,2126,37,2160,33C2194.3,29,2229,15,2263,14.7C2297.1,15,2331,29,2366,36.7C2400,44,2434,44,2451,44L2468.6,44L2468.6,110L2451.4,110C2434.3,110,2400,110,2366,110C2331.4,110,2297,110,2263,110C2228.6,110,2194,110,2160,110C2125.7,110,2091,110,2057,110C2022.9,110,1989,110,1954,110C1920,110,1886,110,1851,110C1817.1,110,1783,110,1749,110C1714.3,110,1680,110,1646,110C1611.4,110,1577,110,1543,110C1508.6,110,1474,110,1440,110C1405.7,110,1371,110,1337,110C1302.9,110,1269,110,1234,110C1200,110,1166,110,1131,110C1097.1,110,1063,110,1029,110C994.3,110,960,110,926,110C891.4,110,857,110,823,110C788.6,110,754,110,720,110C685.7,110,651,110,617,110C582.9,110,549,110,514,110C480,110,446,110,411,110C377.1,110,343,110,309,110C274.3,110,240,110,206,110C171.4,110,137,110,103,110C68.6,110,34,110,17,110L0,110Z"/></svg>