<?xml version="1.0" encoding="UTF-8" standalone="no"?>
<!DOCTYPE svg PUBLIC "-//W3C//DTD SVG 1.1//EN" "http://www.w3.org/Graphics/SVG/1.1/DTD/svg11.dtd">
<svg width="100%" height="100%" viewBox="0 0 154 210" version="1.1" xmlns="http://www.w3.org/2000/svg" xmlns:xlink="http://www.w3.org/1999/xlink" xml:space="preserve" xmlns:serif="http://www.serif.com/" style="fill-rule:evenodd;clip-rule:evenodd;stroke-linejoin:round;stroke-miterlimit:2;">
    <g transform="matrix(1,0,0,1,-677.89,-910.792)">
        <g>
            <path d="M781.814,1055.03C783.509,1054.15 784.748,1053.46 784.748,1053.46C784.748,1053.46 804.87,1052.21 807.73,1055C808.612,1055.86 796.679,1072.94 794.135,1077.5C793.669,1078.33 793.535,1080.3 793.535,1080.3L798.476,1085.72C798.476,1085.72 798.744,1080.88 801.974,1075.79C808.595,1065.35 812.364,1057.97 814.853,1053.57C815.483,1052.46 814.272,1049.38 812.86,1048.76C809.274,1047.19 792.342,1046.11 791.443,1043.62C794.07,1038.37 799.069,1028.65 800.021,1024.02C801.068,1018.94 803.268,1010.95 805.886,1008.46C808.488,1005.99 813.926,1006.03 815.796,1005.47C817.666,1004.91 821.002,1006.12 824.692,1005.01C828.343,1003.9 831.303,1002.44 831.423,999.22C831.676,997.525 827.795,997.237 823.064,995.854C819.337,994.765 815.461,989.487 810.673,988.236C808.097,987.563 804.705,986.366 803.448,985.044C794.52,972.637 799.398,954.784 785.309,940.872C789.123,955.077 791.985,958.781 793.002,976.191C785.888,970.499 779.398,965.289 778.089,953.921C775.186,928.712 762.644,919.917 761.014,920.867C768.117,933.776 776.172,951.08 770.424,958.526C728.268,935.66 743.786,910.327 740.816,910.799C737.847,911.271 721.997,933.33 758.705,960.009C758.705,960.009 770.96,966.176 777.358,970.607C777.358,970.607 795.643,987.063 793.586,990.055C791.529,993.047 787.392,1010.79 775.275,1017.22C767.318,1021.45 767.295,1021.3 763.26,1021.54C758.323,1021.84 757.725,1022.59 753.985,1024.83C749.334,1026.91 710.286,1023.62 704.814,1024.55C700.057,1025.37 691.478,1034.3 689.854,1036.97C687.76,1040.41 684.918,1046.54 688.059,1046.54C692.4,1046.54 693.445,1042.8 692.397,1045.65C691.35,1048.49 693.145,1058.1 692.248,1061.09C691.35,1064.08 679.864,1069.58 680.13,1075.3C680.729,1088.17 678.489,1106.34 677.89,1111.27C679.237,1115.01 681.481,1118.45 681.481,1118.45L686.417,1115.46C686.417,1115.46 684.53,1113.87 683.575,1111.57C682.875,1100.35 690.004,1081.59 692.248,1078C694.492,1074.41 700.326,1072.01 700.326,1072.01L718.577,1063.49L755.97,1062.94C755.97,1062.94 762.449,1087.98 761.315,1104.95C761.195,1106.75 761.313,1113.79 760.714,1118.46C764.172,1115.93 765.631,1115.4 766.732,1114.57C765.256,1113 765.865,1105.7 765.828,1103.96C765.143,1071.77 771.642,1060.87 773.493,1060.32C776.952,1059.29 778.5,1056.88 781.604,1055.28L781.814,1055.03Z" style="fill:rgb(235,235,235);"/>
            <g transform="matrix(3.46898,-2.22045e-16,0,4.62544,-2384.93,-2620.12)">
                <path d="M894.591,796.894L894.591,808.681L889.284,808.681L889.284,779.219L900.568,779.219C905.491,779.219 911.603,779.108 915.305,782.635C918.731,785.901 917.433,790.633 914.488,793.403C913.535,794.299 911.413,796.026 910.073,796.202L910.073,796.299L919.721,808.681L914.415,808.681L905.212,796.894L894.591,796.894ZM894.591,782.808L894.591,793.305L899.832,793.305C902.783,793.305 906.478,793.468 909.17,791.92C911.056,790.835 913.103,787.927 911.737,785.715C910.923,784.396 908.95,783.602 907.547,783.321C905.161,782.842 903.085,782.808 900.613,782.808L894.591,782.808Z" style="fill:rgb(236,37,90);fill-rule:nonzero;"/>
            </g>
            <g transform="matrix(1,0,0,1,-0.743327,1.93265)">
                <path d="M682.564,1117.6L682.96,1118.54L690.682,1118.48L689.21,1113.68L682.564,1117.6Z" style="fill:rgb(250,237,240);"/>
            </g>
            <g transform="matrix(0.999755,-0.0221265,0.0221265,0.999755,53.7835,17.4311)">
                <path d="M682.564,1117.6L682.96,1118.54L690.682,1118.48L689.21,1113.68L682.564,1117.6Z" style="fill:rgb(250,237,240);"/>
            </g>
            <g transform="matrix(0.195115,0.98078,-0.98078,0.195115,1755.86,193.946)">
                <path d="M682.564,1117.6L682.96,1118.54L690.682,1118.48L689.21,1113.68L682.564,1117.6Z" style="fill:rgb(250,237,240);"/>
            </g>
        </g>
        <g id="ColorTemplates">
        </g>
    </g>
</svg>
