<?xml version="1.0" standalone="no"?>
<svg xmlns:xlink="http://www.w3.org/1999/xlink" id="wave" style="transform:rotate(0deg); transition: 0.3s" viewBox="0 0 1440 190" version="1.1" xmlns="http://www.w3.org/2000/svg"><defs><linearGradient id="sw-gradient-0" x1="0" x2="0" y1="1" y2="0"><stop stop-color="rgba(22, 24, 83, 1)" offset="0%"/><stop stop-color="rgba(41, 44, 109, 1)" offset="100%"/></linearGradient></defs><path style="transform:translate(0, 0px); opacity:1" fill="url(#sw-gradient-0)" d="M0,76L17.1,76C34.3,76,69,76,103,82.3C137.1,89,171,101,206,98.2C240,95,274,76,309,69.7C342.9,63,377,70,411,66.5C445.7,63,480,51,514,53.8C548.6,57,583,76,617,79.2C651.4,82,686,70,720,72.8C754.3,76,789,95,823,107.7C857.1,120,891,127,926,114C960,101,994,70,1029,76C1062.9,82,1097,127,1131,148.8C1165.7,171,1200,171,1234,155.2C1268.6,139,1303,108,1337,82.3C1371.4,57,1406,38,1440,25.3C1474.3,13,1509,6,1543,15.8C1577.1,25,1611,51,1646,63.3C1680,76,1714,76,1749,88.7C1782.9,101,1817,127,1851,123.5C1885.7,120,1920,89,1954,69.7C1988.6,51,2023,44,2057,47.5C2091.4,51,2126,63,2160,57C2194.3,51,2229,25,2263,25.3C2297.1,25,2331,51,2366,63.3C2400,76,2434,76,2451,76L2468.6,76L2468.6,190L2451.4,190C2434.3,190,2400,190,2366,190C2331.4,190,2297,190,2263,190C2228.6,190,2194,190,2160,190C2125.7,190,2091,190,2057,190C2022.9,190,1989,190,1954,190C1920,190,1886,190,1851,190C1817.1,190,1783,190,1749,190C1714.3,190,1680,190,1646,190C1611.4,190,1577,190,1543,190C1508.6,190,1474,190,1440,190C1405.7,190,1371,190,1337,190C1302.9,190,1269,190,1234,190C1200,190,1166,190,1131,190C1097.1,190,1063,190,1029,190C994.3,190,960,190,926,190C891.4,190,857,190,823,190C788.6,190,754,190,720,190C685.7,190,651,190,617,190C582.9,190,549,190,514,190C480,190,446,190,411,190C377.1,190,343,190,309,190C274.3,190,240,190,206,190C171.4,190,137,190,103,190C68.6,190,34,190,17,190L0,190Z"/></svg>