<?xml version="1.0" encoding="utf-8"?>
<svg xmlns="http://www.w3.org/2000/svg" style="margin: auto; background: none; display: block; shape-rendering: auto;" width="150" height="150" preserveAspectRatio="xMidYMid">
<style type="text/css">
  text {
    text-anchor: middle; font-size: 55px; opacity: 0;
  }
</style>
<g style="transform-origin: 75px 75px; transform: scale(0.486726);">
<g transform="translate(75,75)">
  <g transform="translate(-23,0)"><g class="path" style="transform: matrix(1, 0, 0, 1, 0, 0); transform-origin: -79.26px -9.2854px; animation: 1s linear -0.55s infinite normal forwards running bounce-b70682c4-e14e-4b3c-83e1-4c760cd7584f;"><path d="M54.46 0L46.24 0L24.77-33.77L15.01-33.77L15.01 0L7.89 0L7.89-79.12L33.00-79.12L33.00-79.12Q37.02-79.12 40.55-77.60L40.55-77.60L40.55-77.60Q44.09-76.09 46.73-73.44L46.73-73.44L46.73-73.44Q49.38-70.79 50.90-67.23L50.90-67.23L50.90-67.23Q52.42-63.67 52.42-59.65L52.42-59.65L52.42-53.24L52.42-53.24Q52.42-49.22 50.90-45.66L50.90-45.66L50.90-45.66Q49.38-42.10 46.73-39.45L46.73-39.45L46.73-39.45Q44.09-36.80 40.55-35.28L40.55-35.28L40.55-35.28Q37.02-33.77 33.00-33.77L33.00-33.77L54.46 0zM45.30-53.24L45.30-59.65L45.30-59.65Q45.30-62.29 44.31-64.58L44.31-64.58L44.31-64.58Q43.31-66.87 41.60-68.61L41.60-68.61L41.60-68.61Q39.89-70.35 37.60-71.34L37.60-71.34L37.60-71.34Q35.31-72.34 32.66-72.34L32.66-72.34L15.01-72.34L15.01-40.55L32.66-40.55L32.66-40.55Q35.31-40.55 37.60-41.55L37.60-41.55L37.60-41.55Q39.89-42.54 41.60-44.28L41.60-44.28L41.60-44.28Q43.31-46.02 44.31-48.31L44.31-48.31L44.31-48.31Q45.30-50.60 45.30-53.24L45.30-53.24" fill="#ec255a" stroke="none" stroke-width="none" transform="translate(-110.43497920036316,30.27459737141927)" style="fill: rgb(236, 37, 90);"></path></g><g class="path" style="transform: matrix(1, 0, 0, 1, 0, 0); transform-origin: -25.795px 2.0246px; animation: 1s linear -0.44s infinite normal forwards running bounce-b70682c4-e14e-4b3c-83e1-4c760cd7584f;"><path d="M103.51 0L101.25 0L97.50-5.63L97.50-5.63Q95.18-2.59 91.70-0.74L91.70-0.74L91.70-0.74Q88.23 1.10 84.09 1.10L84.09 1.10L82.38 1.10L82.38 1.10Q78.96 1.10 75.92-0.19L75.92-0.19L75.92-0.19Q72.89-1.49 70.63-3.75L70.63-3.75L70.63-3.75Q68.36-6.01 67.07-9.05L67.07-9.05L67.07-9.05Q65.77-12.08 65.77-15.50L65.77-15.50L65.77-16.06L65.77-16.06Q65.77-19.48 67.07-22.51L67.07-22.51L67.07-22.51Q68.36-25.55 70.63-27.81L70.63-27.81L70.63-27.81Q72.89-30.07 75.92-31.37L75.92-31.37L75.92-31.37Q78.96-32.66 82.38-32.66L82.38-32.66L96.72-32.66L96.72-41.38L96.72-41.38Q96.72-43.42 95.95-45.22L95.95-45.22L95.95-45.22Q95.18-47.01 93.85-48.33L93.85-48.33L93.85-48.33Q92.53-49.66 90.74-50.43L90.74-50.43L90.74-50.43Q88.94-51.20 86.90-51.20L86.90-51.20L82.93-51.20L82.93-51.20Q80.89-51.20 79.09-50.43L79.09-50.43L79.09-50.43Q77.30-49.66 75.98-48.33L75.98-48.33L75.98-48.33Q74.65-47.01 73.88-45.22L73.88-45.22L73.88-45.22Q73.11-43.42 73.11-41.38L73.11-41.38L73.11-39.34L66.32-40.44L66.32-41.00L66.32-41.00Q66.32-44.42 67.62-47.45L67.62-47.45L67.62-47.45Q68.91-50.49 71.18-52.75L71.18-52.75L71.18-52.75Q73.44-55.01 76.47-56.31L76.47-56.31L76.47-56.31Q79.51-57.60 82.93-57.60L82.93-57.60L86.90-57.60L86.90-57.60Q90.32-57.60 93.36-56.31L93.36-56.31L93.36-56.31Q96.39-55.01 98.65-52.75L98.65-52.75L98.65-52.75Q100.92-50.49 102.21-47.45L102.21-47.45L102.21-47.45Q103.51-44.42 103.51-41.00L103.51-41.00L103.51 0zM96.72-15.12L96.72-27.37L82.38-27.37L82.38-27.37Q80.34-27.37 78.54-26.59L78.54-26.59L78.54-26.59Q76.75-25.82 75.43-24.47L75.43-24.47L75.43-24.47Q74.10-23.12 73.33-21.33L73.33-21.33L73.33-21.33Q72.56-19.53 72.56-17.49L72.56-17.49L72.56-15.12L72.56-15.12Q72.56-13.08 73.33-11.28L73.33-11.28L73.33-11.28Q74.10-9.49 75.43-8.17L75.43-8.17L75.43-8.17Q76.75-6.84 78.54-6.07L78.54-6.07L78.54-6.07Q80.34-5.30 82.38-5.30L82.38-5.30L86.90-5.30L86.90-5.30Q88.94-5.30 90.74-6.07L90.74-6.07L90.74-6.07Q92.53-6.84 93.85-8.17L93.85-8.17L93.85-8.17Q95.18-9.49 95.95-11.28L95.95-11.28L95.95-11.28Q96.72-13.08 96.72-15.12L96.72-15.12" fill="#ec255a" stroke="none" stroke-width="none" transform="translate(-110.43497920036316,30.27459737141927)" style="fill: rgb(236, 37, 90);"></path></g><g class="path" style="transform: matrix(1, 0, 0, 1, 0, 0); transform-origin: 25.515px -8.7354px; animation: 1s linear -0.33s infinite normal forwards running bounce-b70682c4-e14e-4b3c-83e1-4c760cd7584f;"><path d="M154.82 0L152.56 0L148.81-5.74L148.81-5.74Q146.49-2.59 143.02-0.74L143.02-0.74L143.02-0.74Q139.54 1.10 135.40 1.10L135.40 1.10L133.69 1.10L133.69 1.10Q130.27 1.10 127.24-0.19L127.24-0.19L127.24-0.19Q124.20-1.49 121.94-3.75L121.94-3.75L121.94-3.75Q119.68-6.01 118.38-9.05L118.38-9.05L118.38-9.05Q117.08-12.08 117.08-15.50L117.08-15.50L117.08-41.00L117.08-41.00Q117.08-44.42 118.38-47.45L118.38-47.45L118.38-47.45Q119.68-50.49 121.94-52.75L121.94-52.75L121.94-52.75Q124.20-55.01 127.24-56.31L127.24-56.31L127.24-56.31Q130.27-57.60 133.69-57.60L133.69-57.60L135.40-57.60L135.40-57.60Q139.21-57.60 142.46-56.06L142.46-56.06L142.46-56.06Q145.72-54.51 148.04-51.75L148.04-51.75L148.04-79.12L154.82-79.12L154.82 0zM148.04-15.12L148.04-41.38L148.04-41.38Q148.04-43.42 147.26-45.22L147.26-45.22L147.26-45.22Q146.49-47.01 145.17-48.33L145.17-48.33L145.17-48.33Q143.84-49.66 142.05-50.43L142.05-50.43L142.05-50.43Q140.26-51.20 138.22-51.20L138.22-51.20L133.69-51.20L133.69-51.20Q131.65-51.20 129.86-50.43L129.86-50.43L129.86-50.43Q128.06-49.66 126.74-48.33L126.74-48.33L126.74-48.33Q125.41-47.01 124.64-45.22L124.64-45.22L124.64-45.22Q123.87-43.42 123.87-41.38L123.87-41.38L123.87-15.12L123.87-15.12Q123.87-13.08 124.64-11.28L124.64-11.28L124.64-11.28Q125.41-9.49 126.74-8.17L126.74-8.17L126.74-8.17Q128.06-6.84 129.86-6.07L129.86-6.07L129.86-6.07Q131.65-5.30 133.69-5.30L133.69-5.30L138.22-5.30L138.22-5.30Q140.26-5.30 142.05-6.07L142.05-6.07L142.05-6.07Q143.84-6.84 145.17-8.17L145.17-8.17L145.17-8.17Q146.49-9.49 147.26-11.28L147.26-11.28L147.26-11.28Q148.04-13.08 148.04-15.12L148.04-15.12" fill="#ec255a" stroke="none" stroke-width="none" transform="translate(-110.43497920036316,30.27459737141927)" style="fill: rgb(236, 37, 90);"></path></g><g class="path" style="transform: matrix(1, 0, 0, 1, 0, 0); transform-origin: 76.835px 2.0246px; animation: 1s linear -0.22s infinite normal forwards running bounce-b70682c4-e14e-4b3c-83e1-4c760cd7584f;"><path d="M206.14-15.50L206.14-15.50L206.14-15.50Q206.14-12.08 204.84-9.05L204.84-9.05L204.84-9.05Q203.54-6.01 201.28-3.75L201.28-3.75L201.28-3.75Q199.02-1.49 195.98-0.19L195.98-0.19L195.98-0.19Q192.95 1.10 189.53 1.10L189.53 1.10L185.00 1.10L185.00 1.10Q181.58 1.10 178.55-0.19L178.55-0.19L178.55-0.19Q175.51-1.49 173.25-3.75L173.25-3.75L173.25-3.75Q170.99-6.01 169.69-9.05L169.69-9.05L169.69-9.05Q168.40-12.08 168.40-15.50L168.40-15.50L168.40-41.00L168.40-41.00Q168.40-44.42 169.69-47.45L169.69-47.45L169.69-47.45Q170.99-50.49 173.25-52.75L173.25-52.75L173.25-52.75Q175.51-55.01 178.55-56.31L178.55-56.31L178.55-56.31Q181.58-57.60 185.00-57.60L185.00-57.60L189.53-57.60L189.53-57.60Q192.95-57.60 195.98-56.31L195.98-56.31L195.98-56.31Q199.02-55.01 201.28-52.75L201.28-52.75L201.28-52.75Q203.54-50.49 204.84-47.45L204.84-47.45L204.84-47.45Q206.14-44.42 206.14-41.00L206.14-41.00L206.14-27.70L175.18-27.70L175.18-15.12L175.18-15.12Q175.18-13.08 175.96-11.28L175.96-11.28L175.96-11.28Q176.73-9.49 178.05-8.17L178.05-8.17L178.05-8.17Q179.38-6.84 181.17-6.07L181.17-6.07L181.17-6.07Q182.96-5.30 185.00-5.30L185.00-5.30L189.53-5.30L189.53-5.30Q191.57-5.30 193.36-6.07L193.36-6.07L193.36-6.07Q195.16-6.84 196.48-8.17L196.48-8.17L196.48-8.17Q197.81-9.49 198.58-11.28L198.58-11.28L198.58-11.28Q199.35-13.08 199.35-15.12L199.35-15.12L199.35-18.87L206.14-17.77L206.14-15.50zM199.35-33.00L199.35-41.38L199.35-41.38Q199.35-43.42 198.58-45.22L198.58-45.22L198.58-45.22Q197.81-47.01 196.48-48.33L196.48-48.33L196.48-48.33Q195.16-49.66 193.36-50.43L193.36-50.43L193.36-50.43Q191.57-51.20 189.53-51.20L189.53-51.20L185.00-51.20L185.00-51.20Q182.96-51.20 181.17-50.43L181.17-50.43L181.17-50.43Q179.38-49.66 178.05-48.33L178.05-48.33L178.05-48.33Q176.73-47.01 175.96-45.22L175.96-45.22L175.96-45.22Q175.18-43.42 175.18-41.38L175.18-41.38L175.18-33.00L199.35-33.00" fill="#ec255a" stroke="none" stroke-width="none" transform="translate(-110.43497920036316,30.27459737141927)" style="fill: rgb(236, 37, 90);"></path></g><g class="path" style="transform: matrix(1, 0, 0, 1, 0, 0); transform-origin: 135.59px 2.0246px; animation: 1s linear -0.11s infinite normal forwards running bounce-b70682c4-e14e-4b3c-83e1-4c760cd7584f;"><path d="M261.97 0L253.15 0L230.08-28.25L253.15-56.50L261.97-56.50L238.36-28.25L261.97 0" fill="#ec255a" stroke="none" stroke-width="none" transform="translate(-110.43497920036316,30.27459737141927)" style="fill: rgb(236, 37, 90);"></path></g><g class="path" style="transform: matrix(1, 0, 0, 1, 0, 0); transform-origin: 114.93px -9.2854px; animation: 1s linear 0s infinite normal forwards running bounce-b70682c4-e14e-4b3c-83e1-4c760cd7584f;"><path d="M228.76 0L221.97 0L221.97-79.12L228.76-79.12L228.76 0" fill="#ec255a" stroke="none" stroke-width="none" transform="translate(-110.43497920036316,30.27459737141927)" style="fill: rgb(236, 37, 90);"></path></g></g>
</g>
</g>
<style id="bounce-b70682c4-e14e-4b3c-83e1-4c760cd7584f" data-anikit="">@keyframes bounce-b70682c4-e14e-4b3c-83e1-4c760cd7584f
{
  0% {
    animation-timing-function: cubic-bezier(0.1361,0.2514,0.2175,0.8786);
    transform: translate(0,0px) scaleY(1);
  }
  37% {
    animation-timing-function: cubic-bezier(0.7674,0.1844,0.8382,0.7157);
    transform: translate(0,5.994px) scaleY(1);
  }
  72% {
    animation-timing-function: cubic-bezier(0.2562,0.4952,0.4945,0.9788);
    transform: translate(0,0px) scaleY(1);
  }
  87% {
    animation-timing-function: cubic-bezier(0.4921,0.1447,0.7334,0.5519);
    transform: translate(0,-1.071px) scaleY(0.881);
  }
  100% {
    transform: translate(0,0px) scaleY(1);
  }
}</style></svg>