<svg id="wave" style="transform:rotate(0deg); transition: 0.3s" viewBox="0 0 1440 130" version="1.1" xmlns="http://www.w3.org/2000/svg"><defs><linearGradient id="sw-gradient-0" x1="0" x2="0" y1="1" y2="0"><stop stop-color="rgba(22, 24, 83, 1)" offset="0%"></stop><stop stop-color="rgba(41, 44, 109, 1)" offset="100%"></stop></linearGradient></defs><path style="transform:translate(0, 0px); opacity:1" fill="url(#sw-gradient-0)" d="M0,78L20,65C40,52,80,26,120,23.8C160,22,200,43,240,49.8C280,56,320,48,360,52C400,56,440,74,480,80.2C520,87,560,82,600,86.7C640,91,680,104,720,93.2C760,82,800,48,840,45.5C880,43,920,74,960,86.7C1000,100,1040,95,1080,91C1120,87,1160,82,1200,84.5C1240,87,1280,95,1320,93.2C1360,91,1400,78,1440,80.2C1480,82,1520,100,1560,95.3C1600,91,1640,65,1680,47.7C1720,30,1760,22,1800,28.2C1840,35,1880,56,1920,58.5C1960,61,2000,43,2040,30.3C2080,17,2120,9,2160,4.3C2200,0,2240,0,2280,4.3C2320,9,2360,17,2400,23.8C2440,30,2480,35,2520,39C2560,43,2600,48,2640,56.3C2680,65,2720,78,2760,80.2C2800,82,2840,74,2860,69.3L2880,65L2880,130L2860,130C2840,130,2800,130,2760,130C2720,130,2680,130,2640,130C2600,130,2560,130,2520,130C2480,130,2440,130,2400,130C2360,130,2320,130,2280,130C2240,130,2200,130,2160,130C2120,130,2080,130,2040,130C2000,130,1960,130,1920,130C1880,130,1840,130,1800,130C1760,130,1720,130,1680,130C1640,130,1600,130,1560,130C1520,130,1480,130,1440,130C1400,130,1360,130,1320,130C1280,130,1240,130,1200,130C1160,130,1120,130,1080,130C1040,130,1000,130,960,130C920,130,880,130,840,130C800,130,760,130,720,130C680,130,640,130,600,130C560,130,520,130,480,130C440,130,400,130,360,130C320,130,280,130,240,130C200,130,160,130,120,130C80,130,40,130,20,130L0,130Z"></path></svg>